<svg id="visual" viewBox="0 0 1500 500" width="1500" height="500" xmlns="http://www.w3.org/2000/svg" xmlns:xlink="http://www.w3.org/1999/xlink" version="1.1"><rect x="0" y="0" width="1500" height="500" fill="#05101d"></rect><path d="M0 344L35.7 346.5C71.3 349 142.7 354 214.2 341.7C285.7 329.3 357.3 299.7 428.8 302C500.3 304.3 571.7 338.7 643 349.3C714.3 360 785.7 347 857 329.7C928.3 312.3 999.7 290.7 1071.2 299.2C1142.7 307.7 1214.3 346.3 1285.8 362.7C1357.3 379 1428.7 373 1464.3 370L1500 367L1500 501L1464.3 501C1428.7 501 1357.3 501 1285.8 501C1214.3 501 1142.7 501 1071.2 501C999.7 501 928.3 501 857 501C785.7 501 714.3 501 643 501C571.7 501 500.3 501 428.8 501C357.3 501 285.7 501 214.2 501C142.7 501 71.3 501 35.7 501L0 501Z" fill="#0066FF" stroke-linecap="round" stroke-linejoin="miter"></path></svg>